<?xml version="1.0" encoding="UTF-8"?>
<!-- Generated by Pixelmator Pro 3.5.11 -->
<svg width="303" height="83" viewBox="0 0 303 83" xmlns="http://www.w3.org/2000/svg">
    <path id="Path" fill="none" stroke="none" d="M -42.596001 -42.587997 L 357.403992 -42.587997 L 357.403992 125.412003 L -42.596001 125.412003 Z"/>
    <path id="path1" fill="#000000" stroke="none" d="M 121.457993 27.495003 L 121.457993 82.681999 L 113.766998 82.681999 L 113.766998 27.495003 L 100.145004 27.495003 L 100.145004 20.775002 L 135.078995 20.775002 L 135.078995 27.495003 L 121.457993 27.495003 Z M 162.737 53.934998 L 162.737 82.681999 L 154.770996 82.681999 L 154.770996 53.934998 L 138.945999 20.775002 L 147.431 20.775002 L 159.098999 45.794998 L 170.774994 20.775002 L 178.828003 20.775002 L 162.737 53.934998 Z M 202.705002 59.332001 L 195.276001 59.332001 L 195.276001 82.681999 L 187.578003 82.681999 L 187.578003 20.775002 C 187.578003 20.775002 195.190994 20.150002 202.533997 20.150002 C 215.971985 20.150002 219.86499 28.466003 219.86499 39.345001 C 219.86499 52.785004 215.260986 59.332001 202.705002 59.332001 M 203.585007 26.522003 C 198.725998 26.522003 195.274994 27.053001 195.274994 27.053001 L 195.274994 52.867996 L 203.585007 52.867996 C 208.541 52.867996 211.994003 49.599998 211.994003 39.960999 C 211.994995 31.113998 209.863007 26.522003 203.585007 26.522003 M 247.63501 83.294998 C 233.046997 83.294998 229.153992 72.684998 229.153992 51.024002 C 229.153992 30.235001 233.048004 20.151001 247.63501 20.151001 C 262.221985 20.151001 266.113007 30.235001 266.113007 51.024002 C 266.113007 72.684998 262.221985 83.294998 247.63501 83.294998 M 247.63501 26.605003 C 239.682007 26.605003 237.023987 32.004997 237.023987 51.462997 C 237.023987 70.469002 239.682007 76.846001 247.63501 76.846001 C 255.588013 76.846001 258.244995 70.469002 258.244995 51.462997 C 258.246002 32.004997 255.588013 26.605003 247.63501 26.605003 M 288.312988 83.294998 C 283.981995 83.294998 277.53299 81.973999 276.726013 81.785004 L 276.726013 75.341003 C 278.855011 75.778999 284.334015 76.690002 288.229004 76.690002 C 292.730011 76.690002 295.657013 72.867996 295.657013 66.050003 C 295.657013 58.011002 294.338989 53.764 288.056 53.764 L 280.799988 53.764 L 280.799988 47.301003 L 287.161987 47.301003 C 294.338013 47.301003 294.677002 39.960999 294.677002 36.428001 C 294.677002 29.438004 292.475006 26.605003 288.056 26.605003 C 284.165985 26.605003 279.733002 27.578003 277.177002 28.111 L 277.177002 21.656998 C 278.144012 21.477997 283.369995 20.151001 287.872986 20.151001 C 296.977997 20.151001 302.204987 24.042999 302.204987 37.225998 C 302.204987 43.240997 300.072998 48.537003 295.385986 50.227997 C 300.78299 50.582001 303.255005 56.504997 303.255005 65.169998 C 303.255005 78.350998 298.128998 83.294998 288.312988 83.294998"/>
    <path id="path2" fill="#ff8700" stroke="none" d="M 63.073997 57.127998 C 61.827003 57.496002 60.832001 57.634003 59.527 57.634003 C 48.835999 57.634003 33.138 20.275002 33.138 7.841003 C 33.138 3.264 34.221001 1.737 35.750999 0.425995 C 22.667 1.953003 6.966999 6.755005 1.946999 12.859001 C 0.862 14.388 0.202 16.785004 0.202 19.839005 C 0.202 39.249001 20.919998 83.293999 35.533997 83.293999 C 42.296997 83.294998 53.695999 72.181 63.073997 57.127998"/>
    <path id="path3" fill="#ff8700" stroke="none" d="M 56.25 -0.877998 C 69.769997 -0.877998 83.299004 1.302002 83.299004 8.933998 C 83.299004 24.417 73.480003 43.18 68.467003 43.18 C 59.525002 43.18 48.402 18.313004 48.402 5.878998 C 48.403 0.209 50.583 -0.877998 56.25 -0.877998"/>
</svg>
