<?xml version="1.0" encoding="UTF-8"?>
<!-- Generated by Pixelmator Pro 3.5.11 -->
<svg width="9696" height="1978" viewBox="0 0 9696 1978" xmlns="http://www.w3.org/2000/svg">
    <path id="Path" fill="#32373c" stroke="none" d="M 5518.911133 1397.691772 L 5503.527344 1397.691772 C 5424.433105 1397.691772 5413.449707 1377.916138 5413.449707 1276.84668 L 5413.449707 800.074707 L 5518.911133 800.074707 C 5747.400879 800.074707 5789.151855 967.037842 5789.151855 1096.674805 C 5789.151855 1230.703613 5747.400879 1397.691772 5518.911133 1397.691772 M 4591.734375 1092.266357 L 4591.734375 800.074707 L 4681.803711 800.074707 C 4780.67334 800.074707 4824.632813 868.168213 4824.632813 947.262207 C 4824.632813 1024.172729 4780.67334 1092.266357 4681.803711 1092.266357 Z M 5512.318848 734.164551 L 5119.032715 734.164551 L 5119.032715 775.890625 C 5242.061523 775.890625 5261.828613 802.258057 5261.828613 958.262573 L 5261.828613 1239.503906 C 5261.828613 1395.491699 5242.061523 1424.059204 5119.032715 1424.059204 C 5024.571777 1410.875488 4960.844727 1360.323975 4872.950684 1263.662964 L 4771.90625 1153.818115 C 4908.110352 1129.634033 4980.612305 1043.948242 4980.612305 947.262207 C 4980.612305 826.442139 4877.359375 734.164551 4684.012207 734.164551 L 4297.30957 734.164551 L 4297.30957 775.890625 C 4420.337891 775.890625 4440.113281 802.258057 4440.113281 958.262573 L 4440.113281 1239.503906 C 4440.113281 1395.491699 4420.337891 1424.059204 4297.30957 1424.059204 L 4297.30957 1465.7854 L 4734.538574 1465.7854 L 4734.538574 1424.059204 C 4611.509766 1424.059204 4591.734375 1395.491699 4591.734375 1239.503906 L 4591.734375 1160.409912 L 4629.077148 1160.409912 L 4872.950684 1465.7854 L 5512.318848 1465.7854 C 5826.519531 1465.7854 5962.723633 1298.822266 5962.723633 1098.858154 C 5962.723633 898.944092 5826.519531 734.164551 5512.318848 734.164551"/>
    <path id="path1" fill="#32373c" stroke="none" d="M 3073.556152 1173.591187 L 3225.151855 725.33667 C 3269.111816 595.724609 3249.335938 558.381836 3108.715332 558.381836 L 3108.715332 514.422363 L 3521.785645 514.422363 L 3521.785645 558.381836 C 3383.364746 558.381836 3350.414063 591.332764 3295.479004 751.729004 L 3044.988525 1503.150635 L 3016.437744 1503.150635 L 2792.314697 815.439209 L 2563.833252 1503.150635 L 2535.257324 1503.150635 L 2291.383789 751.729004 C 2238.657227 591.332764 2203.497803 558.381836 2076.060791 558.381836 L 2076.060791 514.422363 L 2563.833252 514.422363 L 2563.833252 558.381836 C 2434.187744 558.381836 2399.028564 589.132813 2445.188232 725.33667 L 2592.375732 1173.591187 L 2814.290283 514.422363 L 2856.049805 514.422363 Z"/>
    <path id="path2" fill="#32373c" stroke="none" d="M 3820.540527 773.708984 C 3618.418457 773.708984 3548.099609 956.055786 3548.099609 1098.859863 C 3548.099609 1243.889038 3618.418457 1424.05249 3820.540527 1424.05249 C 4024.896484 1424.05249 4095.19043 1243.889038 4095.19043 1098.859863 C 4095.19043 956.055786 4024.896484 773.708984 3820.540527 773.708984 M 3820.540527 1494.354492 C 3578.875488 1494.354492 3381.111328 1316.391113 3381.111328 1098.859863 C 3381.111328 883.553711 3578.875488 705.565186 3820.540527 705.565186 C 4062.239258 705.565186 4259.969727 883.553711 4259.969727 1098.859863 C 4259.969727 1316.391113 4062.239258 1494.354492 3820.540527 1494.354492"/>
    <path id="path3" fill="#32373c" stroke="none" d="M 6457.040039 593.516357 L 6331.811523 593.516357 L 6331.811523 975.827148 L 6457.040039 975.827148 C 6580.09375 975.827148 6637.203613 890.149658 6637.203613 786.888428 C 6637.203613 681.435547 6580.09375 593.516357 6457.040039 593.516357 M 6505.383301 1421.848267 L 6505.383301 1465.782837 L 6002.252441 1465.782837 L 6002.252441 1421.848267 C 6149.464844 1421.848267 6175.82373 1384.505493 6175.82373 1164.774292 L 6175.82373 813.255859 C 6175.82373 593.516357 6149.464844 558.381836 6002.252441 558.381836 L 6002.252441 514.422363 L 6457.040039 514.422363 C 6683.34668 514.422363 6808.608398 630.884033 6808.608398 786.888428 C 6808.608398 938.492798 6683.34668 1057.129517 6457.040039 1057.129517 L 6331.811523 1057.129517 L 6331.811523 1164.774292 C 6331.811523 1384.505493 6358.170898 1421.848267 6505.383301 1421.848267"/>
    <path id="path4" fill="#32373c" stroke="none" d="M 7153.552734 1092.266357 L 7153.552734 800.074707 L 7243.62207 800.074707 C 7342.491211 800.074707 7386.451172 868.168213 7386.451172 947.262207 C 7386.451172 1024.172729 7342.491211 1092.266357 7243.62207 1092.266357 Z M 8317.986328 1259.279419 L 8307.010742 1298.822266 C 8287.235352 1371.324341 8263.050781 1397.691772 8107.071289 1397.691772 L 8076.295898 1397.691772 C 7962.058594 1397.691772 7942.291992 1371.324341 7942.291992 1215.319824 L 7942.291992 1114.266968 C 8113.655273 1114.266968 8126.838867 1129.634033 8126.838867 1243.887329 L 8168.598633 1243.887329 L 8168.598633 916.51123 L 8126.838867 916.51123 C 8126.838867 1030.764648 8113.655273 1046.123413 7942.291992 1046.123413 L 7942.291992 800.074707 L 8063.112305 800.074707 C 8219.116211 800.074707 8243.275391 826.442139 8263.050781 898.944092 L 8274.050781 940.67041 L 8309.185547 940.67041 L 8293.827148 734.164551 L 7647.867188 734.164551 L 7647.867188 775.890625 C 7770.895508 775.890625 7790.662109 802.249756 7790.662109 958.262573 L 7790.662109 1239.503906 C 7790.662109 1382.199585 7773.862305 1418.150635 7676.867188 1423.267456 C 7584.665039 1409.200439 7521.363281 1358.907349 7434.768555 1263.662964 L 7333.691406 1153.818115 C 7469.928711 1129.634033 7542.430664 1043.948364 7542.430664 947.262207 C 7542.430664 826.442139 7439.177734 734.164551 7245.830078 734.164551 L 6859.127441 734.164551 L 6859.127441 775.890625 C 6982.15625 775.890625 7001.931641 802.249756 7001.931641 958.262573 L 7001.931641 1239.503906 C 7001.931641 1395.483276 6982.15625 1424.059204 6859.127441 1424.059204 L 6859.127441 1465.7854 L 7296.348633 1465.7854 L 7296.348633 1424.059204 C 7173.328125 1424.059204 7153.552734 1395.483276 7153.552734 1239.503906 L 7153.552734 1160.409912 L 7190.895508 1160.409912 L 7434.768555 1465.7854 L 8337.761719 1465.7854 L 8350.936523 1259.279419 Z"/>
    <path id="path5" fill="#32373c" stroke="none" d="M 8764.004883 1494.355347 C 8676.110352 1494.355347 8599.200195 1448.212402 8566.249023 1419.644897 C 8555.265625 1430.645142 8535.498047 1463.604492 8531.106445 1494.355347 L 8489.354492 1494.355347 L 8489.354492 1191.16333 L 8533.290039 1191.16333 C 8550.881836 1336.16748 8651.93457 1421.853271 8781.571289 1421.853271 C 8851.874023 1421.853271 8909.016602 1382.302124 8909.016602 1316.391968 C 8909.016602 1259.273682 8858.46582 1215.313965 8768.387695 1173.587891 L 8643.15918 1114.269531 C 8555.265625 1072.493286 8489.354492 999.991211 8489.354492 903.330078 C 8489.354492 797.868896 8588.224609 707.799561 8724.461914 707.799561 C 8796.963867 707.799561 8858.46582 734.166992 8895.833008 764.909424 C 8906.808594 756.117676 8917.78418 731.933594 8924.400391 705.566162 L 8966.126953 705.566162 L 8966.126953 964.856934 L 8919.992188 964.856934 C 8904.600586 861.578857 8847.490234 775.893066 8731.053711 775.893066 C 8669.526367 775.893066 8612.383789 811.05249 8612.383789 865.987305 C 8612.383789 923.09729 8658.526367 953.856567 8764.004883 1002.199585 L 8884.824219 1061.517944 C 8990.310547 1112.036133 9032.037109 1193.363403 9032.037109 1259.273682 C 9032.037109 1397.694214 8911.192383 1494.355347 8764.004883 1494.355347"/>
    <path id="path6" fill="#32373c" stroke="none" d="M 9428.359375 1494.355347 C 9340.464844 1494.355347 9263.554688 1448.212402 9230.603516 1419.644897 C 9219.620117 1430.645142 9199.844727 1463.604492 9195.460938 1494.355347 L 9153.709961 1494.355347 L 9153.709961 1191.16333 L 9197.644531 1191.16333 C 9215.236328 1336.16748 9316.28125 1421.853271 9445.926758 1421.853271 C 9516.228516 1421.853271 9573.363281 1382.302124 9573.363281 1316.391968 C 9573.363281 1259.273682 9522.811523 1215.313965 9432.743164 1173.587891 L 9307.514648 1114.269531 C 9219.620117 1072.493286 9153.709961 999.991211 9153.709961 903.330078 C 9153.709961 797.868896 9252.579102 707.799561 9388.816406 707.799561 C 9461.318359 707.799561 9522.811523 734.166992 9560.179688 764.909424 C 9571.163086 756.117676 9582.138672 731.933594 9588.730469 705.566162 L 9630.481445 705.566162 L 9630.481445 964.856934 L 9584.338867 964.856934 C 9568.955078 861.578857 9511.836914 775.893066 9395.400391 775.893066 C 9333.881836 775.893066 9276.738281 811.05249 9276.738281 865.987305 C 9276.738281 923.09729 9322.873047 953.856567 9428.359375 1002.199585 L 9549.179688 1061.517944 C 9654.666016 1112.036133 9696.391602 1193.363403 9696.391602 1259.273682 C 9696.391602 1397.694214 9575.546875 1494.355347 9428.359375 1494.355347"/>
    <path id="path7" fill="#32373c" stroke="none" d="M 988.455688 0.282715 C 442.398438 0.282715 -0.272583 442.953613 -0.272583 989.010864 C -0.272583 1535.068237 442.398438 1977.739014 988.455688 1977.739014 C 1534.512939 1977.739014 1977.183838 1535.068237 1977.183838 989.010864 C 1977.183838 442.953613 1534.512939 0.282715 988.455688 0.282715 M 988.455688 59.609375 C 1113.950928 59.609375 1235.662842 84.168457 1350.207764 132.619873 C 1405.259277 155.903809 1458.369141 184.729492 1508.053711 218.297119 C 1557.280273 251.556396 1603.573242 289.749268 1645.641113 331.825439 C 1687.717285 373.893311 1725.910156 420.186279 1759.169434 469.412598 C 1792.737061 519.097412 1821.562744 572.207275 1844.84668 627.258789 C 1893.298096 741.803955 1917.857178 863.515625 1917.857178 989.010864 C 1917.857178 1114.506226 1893.298096 1236.217896 1844.84668 1350.762817 C 1821.562744 1405.814453 1792.737061 1458.924316 1759.169434 1508.609131 C 1725.910156 1557.835449 1687.717285 1604.128418 1645.641113 1646.196289 C 1603.573242 1688.272461 1557.280273 1726.465332 1508.053711 1759.724609 C 1458.369141 1793.292236 1405.259277 1822.118042 1350.207764 1845.4021 C 1235.662842 1893.853394 1113.950928 1918.412476 988.455688 1918.412476 C 862.960449 1918.412476 741.248657 1893.853394 626.712036 1845.4021 C 571.6521 1822.118042 518.542236 1793.292236 468.857544 1759.724609 C 419.631104 1726.465332 373.338135 1688.272461 331.270264 1646.196289 C 289.194092 1604.128418 251.001343 1557.835449 217.741943 1508.609131 C 184.182617 1458.924316 155.348511 1405.814453 132.064575 1350.762817 C 83.613159 1236.217896 59.054077 1114.506226 59.054077 989.010864 C 59.054077 863.515625 83.613159 741.803955 132.064575 627.258789 C 155.348511 572.207275 184.182617 519.097412 217.741943 469.412598 C 251.001343 420.186279 289.194092 373.893311 331.270264 331.825439 C 373.338135 289.749268 419.631104 251.556396 468.857544 218.297119 C 518.542236 184.729492 571.6521 155.903809 626.712036 132.619873 C 741.248657 84.168457 862.960449 59.609375 988.455688 59.609375"/>
    <path id="path8" fill="#32373c" stroke="none" d="M 1711.491211 593.7146 C 1715.024658 619.957031 1717.033203 648.10791 1717.033203 678.433594 C 1717.033203 762.010986 1701.374268 855.99707 1654.356445 973.533813 L 1402.70752 1701.137817 C 1647.664551 1558.325562 1812.394287 1292.942871 1812.394287 988.984253 C 1812.394287 845.730225 1775.793213 711.05957 1711.491211 593.7146 M 1002.929443 1061.052979 L 755.680664 1779.381836 C 829.524414 1801.099121 907.584961 1812.949463 988.453979 1812.949463 C 1084.406738 1812.949463 1176.450928 1796.390625 1262.086914 1766.239868 C 1259.878418 1762.714722 1257.844971 1758.9729 1256.169922 1754.881104 Z M 1544.686523 947.424683 C 1544.686523 845.563477 1508.09375 775.069824 1476.759521 720.20166 C 1434.991699 652.299561 1395.823975 594.856201 1395.823975 526.954346 C 1395.823975 451.227295 1453.250488 380.725098 1534.186279 380.725098 C 1537.844727 380.725098 1541.303223 381.166992 1544.853271 381.391846 C 1398.265625 247.07959 1202.960205 165.069092 988.453979 165.069092 C 700.587402 165.069092 447.363525 312.773193 300.026001 536.429688 C 319.376587 537.038086 337.602051 537.429688 353.060791 537.429688 C 439.22168 537.429688 572.658691 526.954346 572.658691 526.954346 C 617.051758 524.354248 622.30188 589.606201 577.925537 594.856201 C 577.925537 594.856201 533.274292 600.081543 483.631226 602.681641 L 783.664795 1495.156982 L 964.003296 954.391602 L 835.641357 602.681641 C 791.248291 600.081543 749.222168 594.856201 749.222168 594.856201 C 704.804199 592.231201 710.012695 524.354248 754.447266 526.954346 C 754.447266 526.954346 890.484497 537.429688 971.44519 537.429688 C 1057.605957 537.429688 1191.068115 526.954346 1191.068115 526.954346 C 1235.477783 524.354248 1240.702881 589.606201 1196.310059 594.856201 C 1196.310059 594.856201 1151.616943 600.081543 1102.023926 602.681641 L 1399.782471 1488.365234 L 1484.784912 1219.02417 C 1522.544189 1101.320801 1544.686523 1017.926758 1544.686523 947.424683 M 164.513794 988.984253 C 164.513794 1315.101929 354.027466 1596.95166 628.9021 1730.48877 L 235.857544 653.66626 C 190.139404 756.127686 164.513794 869.522461 164.513794 988.984253"/>
</svg>
